<svg xmlns="http://www.w3.org/2000/svg" viewBox="0 0 512 512"><path d="M508.764 74.466a14.77 14.77 0 0 0-11.533-5.542H104.152L93.16 21.294A14.77 14.77 0 0 0 78.769 9.846h-64C6.613 9.846 0 16.459 0 24.616s6.613 14.769 14.769 14.769H67.02l74.612 323.321a14.77 14.77 0 0 0 14.391 11.448h295.915c8.157 0 14.769-6.613 14.769-14.769 0-8.157-6.613-14.769-14.769-14.769H167.773l-11.36-49.231h296.511a14.769 14.769 0 0 0 14.409-11.527L511.64 86.935a14.77 14.77 0 0 0-2.876-12.469zm-67.656 191.38H149.596L110.969 98.462h367.8l-37.661 167.384zm-224.493 128c-29.86 0-54.154 24.293-54.154 54.154s24.293 54.154 54.154 54.154c29.86 0 54.154-24.293 54.154-54.154s-24.293-54.154-54.154-54.154zm0 78.77C203.042 472.616 192 461.573 192 448s11.042-24.615 24.615-24.615c13.573 0 24.615 11.042 24.615 24.615s-11.042 24.616-24.615 24.616zm177.231-78.77c-29.86 0-54.154 24.293-54.154 54.154s24.293 54.154 54.154 54.154c29.86 0 54.154-24.293 54.154-54.154s-24.293-54.154-54.154-54.154zm0 78.77c-13.573 0-24.615-11.042-24.615-24.615s11.042-24.615 24.615-24.615c13.573 0 24.615 11.042 24.615 24.615s-11.042 24.615-24.615 24.615z"/></svg>