<?xml version="1.0" encoding="UTF-8"?>
<svg width="13px" height="13px" viewBox="0 0 13 13" version="1.1" xmlns="http://www.w3.org/2000/svg" xmlns:xlink="http://www.w3.org/1999/xlink">
    <!-- Generator: Sketch 49.3 (51167) - http://www.bohemiancoding.com/sketch -->
    <title>Shape</title>
    <desc>Created with Sketch.</desc>
    <defs></defs>
    <g id="Page-1" stroke="none" stroke-width="1" fill="none" fill-rule="evenodd">
        <g id="reload-webpage" transform="translate(0.000000, -2.000000)" fill="#030104" fill-rule="nonzero">
            <path d="M7,2.019 L7,0 L7,4.027 C9.25,4.276 11,6.183 11,8.5 C11,10.985 8.985,13 6.5,13 C4.015,13 2,10.985 2,8.5 C2,8.331 2.01,8.164 2.027,8 L0.019,8 C0.007,8.165 0,8.332 0,8.5 C0,12.09 2.91,15 6.5,15 C10.09,15 13,12.09 13,8.5 C13,5.078 10.356,2.274 7,2.019 Z" id="Shape"></path>
        </g>
    </g>
</svg>